<mxfile host="app.diagrams.net" modified="2024-03-07T18:48:46.946Z" agent="Mozilla/5.0 (Windows NT 10.0; Win64; x64) AppleWebKit/537.36 (KHTML, like Gecko) Chrome/117.0.0.0 Safari/537.36 OPR/103.0.0.0" etag="0DrtmM-HCFsE-1uG5F-k" version="23.1.2" type="device">
  <diagram name="Page-1" id="G4I4MqOixtF0ssesGMVa">
    <mxGraphModel dx="1367" dy="710" grid="0" gridSize="10" guides="1" tooltips="1" connect="1" arrows="1" fold="1" page="1" pageScale="1" pageWidth="1169" pageHeight="1654" math="0" shadow="0">
      <root>
        <mxCell id="0" />
        <mxCell id="1" parent="0" />
        <mxCell id="XC3X-gBupuGjNduM5ZVt-10" style="edgeStyle=orthogonalEdgeStyle;rounded=0;orthogonalLoop=1;jettySize=auto;html=1;exitX=1;exitY=0.5;exitDx=0;exitDy=0;endArrow=none;endFill=0;" edge="1" parent="1" source="XC3X-gBupuGjNduM5ZVt-2" target="XC3X-gBupuGjNduM5ZVt-9">
          <mxGeometry relative="1" as="geometry" />
        </mxCell>
        <mxCell id="XC3X-gBupuGjNduM5ZVt-2" value="&lt;font style=&quot;font-size: 18px;&quot;&gt;Role&lt;/font&gt;" style="rounded=0;whiteSpace=wrap;html=1;fillColor=#dae8fc;strokeColor=#6c8ebf;" vertex="1" parent="1">
          <mxGeometry x="200" y="160" width="120" height="60" as="geometry" />
        </mxCell>
        <mxCell id="XC3X-gBupuGjNduM5ZVt-32" style="edgeStyle=orthogonalEdgeStyle;rounded=0;orthogonalLoop=1;jettySize=auto;html=1;endArrow=none;endFill=0;" edge="1" parent="1" source="XC3X-gBupuGjNduM5ZVt-3" target="XC3X-gBupuGjNduM5ZVt-2">
          <mxGeometry relative="1" as="geometry" />
        </mxCell>
        <mxCell id="XC3X-gBupuGjNduM5ZVt-3" value="Type" style="ellipse;whiteSpace=wrap;html=1;fillColor=#f5f5f5;strokeColor=#666666;fontColor=#333333;" vertex="1" parent="1">
          <mxGeometry x="270" y="80" width="90" height="40" as="geometry" />
        </mxCell>
        <mxCell id="XC3X-gBupuGjNduM5ZVt-4" value="ID" style="ellipse;whiteSpace=wrap;html=1;fillColor=#f5f5f5;strokeColor=#666666;fontColor=#333333;" vertex="1" parent="1">
          <mxGeometry x="160" y="80" width="90" height="40" as="geometry" />
        </mxCell>
        <mxCell id="XC3X-gBupuGjNduM5ZVt-29" style="edgeStyle=orthogonalEdgeStyle;rounded=0;orthogonalLoop=1;jettySize=auto;html=1;exitX=0.5;exitY=1;exitDx=0;exitDy=0;entryX=0.5;entryY=0;entryDx=0;entryDy=0;endArrow=none;endFill=0;" edge="1" parent="1" source="XC3X-gBupuGjNduM5ZVt-8" target="XC3X-gBupuGjNduM5ZVt-16">
          <mxGeometry relative="1" as="geometry" />
        </mxCell>
        <mxCell id="XC3X-gBupuGjNduM5ZVt-65" style="edgeStyle=orthogonalEdgeStyle;rounded=0;orthogonalLoop=1;jettySize=auto;html=1;exitX=0.5;exitY=1;exitDx=0;exitDy=0;endArrow=none;endFill=0;fillColor=#f5f5f5;strokeColor=#666666;" edge="1" parent="1" source="XC3X-gBupuGjNduM5ZVt-8" target="XC3X-gBupuGjNduM5ZVt-15">
          <mxGeometry relative="1" as="geometry" />
        </mxCell>
        <mxCell id="XC3X-gBupuGjNduM5ZVt-8" value="&lt;font size=&quot;3&quot;&gt;User&lt;/font&gt;" style="rounded=0;whiteSpace=wrap;html=1;fillColor=#dae8fc;strokeColor=#6c8ebf;" vertex="1" parent="1">
          <mxGeometry x="590" y="160" width="120" height="60" as="geometry" />
        </mxCell>
        <mxCell id="XC3X-gBupuGjNduM5ZVt-11" style="edgeStyle=orthogonalEdgeStyle;rounded=0;orthogonalLoop=1;jettySize=auto;html=1;exitX=1;exitY=0.5;exitDx=0;exitDy=0;endArrow=none;endFill=0;" edge="1" parent="1" source="XC3X-gBupuGjNduM5ZVt-9" target="XC3X-gBupuGjNduM5ZVt-8">
          <mxGeometry relative="1" as="geometry" />
        </mxCell>
        <mxCell id="XC3X-gBupuGjNduM5ZVt-9" value="Have" style="rhombus;whiteSpace=wrap;html=1;fillColor=#dae8fc;gradientColor=#7ea6e0;strokeColor=#6c8ebf;" vertex="1" parent="1">
          <mxGeometry x="420" y="160" width="60" height="60" as="geometry" />
        </mxCell>
        <mxCell id="XC3X-gBupuGjNduM5ZVt-34" style="edgeStyle=orthogonalEdgeStyle;rounded=0;orthogonalLoop=1;jettySize=auto;html=1;entryX=1;entryY=0.5;entryDx=0;entryDy=0;endArrow=none;endFill=0;" edge="1" parent="1" source="XC3X-gBupuGjNduM5ZVt-12" target="XC3X-gBupuGjNduM5ZVt-18">
          <mxGeometry relative="1" as="geometry" />
        </mxCell>
        <mxCell id="XC3X-gBupuGjNduM5ZVt-69" style="edgeStyle=orthogonalEdgeStyle;rounded=0;orthogonalLoop=1;jettySize=auto;html=1;exitX=0.25;exitY=1;exitDx=0;exitDy=0;entryX=0.5;entryY=0;entryDx=0;entryDy=0;endArrow=none;endFill=0;" edge="1" parent="1" source="XC3X-gBupuGjNduM5ZVt-12" target="XC3X-gBupuGjNduM5ZVt-66">
          <mxGeometry relative="1" as="geometry" />
        </mxCell>
        <mxCell id="XC3X-gBupuGjNduM5ZVt-70" style="edgeStyle=orthogonalEdgeStyle;rounded=0;orthogonalLoop=1;jettySize=auto;html=1;endArrow=none;endFill=0;" edge="1" parent="1" source="XC3X-gBupuGjNduM5ZVt-12" target="XC3X-gBupuGjNduM5ZVt-67">
          <mxGeometry relative="1" as="geometry" />
        </mxCell>
        <mxCell id="XC3X-gBupuGjNduM5ZVt-71" style="edgeStyle=orthogonalEdgeStyle;rounded=0;orthogonalLoop=1;jettySize=auto;html=1;exitX=0.75;exitY=1;exitDx=0;exitDy=0;entryX=0.5;entryY=0;entryDx=0;entryDy=0;endArrow=none;endFill=0;" edge="1" parent="1" source="XC3X-gBupuGjNduM5ZVt-12" target="XC3X-gBupuGjNduM5ZVt-68">
          <mxGeometry relative="1" as="geometry" />
        </mxCell>
        <mxCell id="XC3X-gBupuGjNduM5ZVt-12" value="&lt;font style=&quot;font-size: 18px;&quot;&gt;Client&lt;/font&gt;" style="rounded=0;whiteSpace=wrap;html=1;fillColor=#dae8fc;strokeColor=#6c8ebf;" vertex="1" parent="1">
          <mxGeometry x="960" y="390" width="120" height="60" as="geometry" />
        </mxCell>
        <mxCell id="XC3X-gBupuGjNduM5ZVt-40" style="edgeStyle=orthogonalEdgeStyle;rounded=0;orthogonalLoop=1;jettySize=auto;html=1;exitX=0;exitY=0.5;exitDx=0;exitDy=0;entryX=0.5;entryY=0;entryDx=0;entryDy=0;endArrow=none;endFill=0;" edge="1" parent="1" source="XC3X-gBupuGjNduM5ZVt-13" target="XC3X-gBupuGjNduM5ZVt-39">
          <mxGeometry relative="1" as="geometry" />
        </mxCell>
        <mxCell id="XC3X-gBupuGjNduM5ZVt-13" value="&lt;font style=&quot;font-size: 18px;&quot;&gt;Herify&lt;/font&gt;" style="rounded=0;whiteSpace=wrap;html=1;fillColor=#dae8fc;strokeColor=#6c8ebf;" vertex="1" parent="1">
          <mxGeometry x="200" y="390" width="120" height="60" as="geometry" />
        </mxCell>
        <mxCell id="XC3X-gBupuGjNduM5ZVt-14" value="&lt;font size=&quot;3&quot;&gt;Staff&lt;/font&gt;" style="rounded=0;whiteSpace=wrap;html=1;fillColor=#dae8fc;strokeColor=#6c8ebf;" vertex="1" parent="1">
          <mxGeometry x="930" y="160" width="120" height="60" as="geometry" />
        </mxCell>
        <mxCell id="XC3X-gBupuGjNduM5ZVt-31" style="edgeStyle=orthogonalEdgeStyle;rounded=0;orthogonalLoop=1;jettySize=auto;html=1;exitX=0;exitY=0.5;exitDx=0;exitDy=0;endArrow=none;endFill=0;" edge="1" parent="1" source="XC3X-gBupuGjNduM5ZVt-15" target="XC3X-gBupuGjNduM5ZVt-13">
          <mxGeometry relative="1" as="geometry" />
        </mxCell>
        <mxCell id="XC3X-gBupuGjNduM5ZVt-15" value="Have" style="rhombus;whiteSpace=wrap;html=1;fillColor=#dae8fc;gradientColor=#7ea6e0;strokeColor=#6c8ebf;" vertex="1" parent="1">
          <mxGeometry x="540" y="280" width="60" height="60" as="geometry" />
        </mxCell>
        <mxCell id="XC3X-gBupuGjNduM5ZVt-16" value="Have" style="rhombus;whiteSpace=wrap;html=1;fillColor=#dae8fc;gradientColor=#7ea6e0;strokeColor=#6c8ebf;" vertex="1" parent="1">
          <mxGeometry x="690" y="280" width="60" height="60" as="geometry" />
        </mxCell>
        <mxCell id="XC3X-gBupuGjNduM5ZVt-26" style="edgeStyle=orthogonalEdgeStyle;rounded=0;orthogonalLoop=1;jettySize=auto;html=1;endArrow=none;endFill=0;" edge="1" parent="1" source="XC3X-gBupuGjNduM5ZVt-17" target="XC3X-gBupuGjNduM5ZVt-8">
          <mxGeometry relative="1" as="geometry" />
        </mxCell>
        <mxCell id="XC3X-gBupuGjNduM5ZVt-27" style="edgeStyle=orthogonalEdgeStyle;rounded=0;orthogonalLoop=1;jettySize=auto;html=1;exitX=1;exitY=0.5;exitDx=0;exitDy=0;endArrow=none;endFill=0;" edge="1" parent="1" source="XC3X-gBupuGjNduM5ZVt-17" target="XC3X-gBupuGjNduM5ZVt-14">
          <mxGeometry relative="1" as="geometry" />
        </mxCell>
        <mxCell id="XC3X-gBupuGjNduM5ZVt-17" value="Have" style="rhombus;whiteSpace=wrap;html=1;fillColor=#dae8fc;gradientColor=#7ea6e0;strokeColor=#6c8ebf;" vertex="1" parent="1">
          <mxGeometry x="800" y="160" width="60" height="60" as="geometry" />
        </mxCell>
        <mxCell id="XC3X-gBupuGjNduM5ZVt-35" style="edgeStyle=orthogonalEdgeStyle;rounded=0;orthogonalLoop=1;jettySize=auto;html=1;exitX=0;exitY=0.5;exitDx=0;exitDy=0;endArrow=none;endFill=0;" edge="1" parent="1" source="XC3X-gBupuGjNduM5ZVt-18" target="XC3X-gBupuGjNduM5ZVt-13">
          <mxGeometry relative="1" as="geometry" />
        </mxCell>
        <mxCell id="XC3X-gBupuGjNduM5ZVt-113" style="edgeStyle=orthogonalEdgeStyle;rounded=0;orthogonalLoop=1;jettySize=auto;html=1;exitX=0.5;exitY=1;exitDx=0;exitDy=0;endArrow=none;endFill=0;" edge="1" parent="1" source="XC3X-gBupuGjNduM5ZVt-18" target="XC3X-gBupuGjNduM5ZVt-106">
          <mxGeometry relative="1" as="geometry" />
        </mxCell>
        <mxCell id="XC3X-gBupuGjNduM5ZVt-18" value="Contact" style="rhombus;whiteSpace=wrap;html=1;fillColor=#dae8fc;gradientColor=#7ea6e0;strokeColor=#6c8ebf;" vertex="1" parent="1">
          <mxGeometry x="610" y="390" width="60" height="60" as="geometry" />
        </mxCell>
        <mxCell id="XC3X-gBupuGjNduM5ZVt-30" style="edgeStyle=orthogonalEdgeStyle;rounded=0;orthogonalLoop=1;jettySize=auto;html=1;exitX=1;exitY=0.5;exitDx=0;exitDy=0;entryX=0.59;entryY=-0.037;entryDx=0;entryDy=0;entryPerimeter=0;endArrow=none;endFill=0;" edge="1" parent="1" source="XC3X-gBupuGjNduM5ZVt-16" target="XC3X-gBupuGjNduM5ZVt-12">
          <mxGeometry relative="1" as="geometry" />
        </mxCell>
        <mxCell id="XC3X-gBupuGjNduM5ZVt-33" style="edgeStyle=orthogonalEdgeStyle;rounded=0;orthogonalLoop=1;jettySize=auto;html=1;exitX=0.5;exitY=1;exitDx=0;exitDy=0;entryX=0.415;entryY=0.046;entryDx=0;entryDy=0;entryPerimeter=0;endArrow=none;endFill=0;" edge="1" parent="1" source="XC3X-gBupuGjNduM5ZVt-4" target="XC3X-gBupuGjNduM5ZVt-2">
          <mxGeometry relative="1" as="geometry" />
        </mxCell>
        <mxCell id="XC3X-gBupuGjNduM5ZVt-74" style="edgeStyle=orthogonalEdgeStyle;rounded=0;orthogonalLoop=1;jettySize=auto;html=1;exitX=0.5;exitY=1;exitDx=0;exitDy=0;entryX=0.5;entryY=0;entryDx=0;entryDy=0;endArrow=none;endFill=0;" edge="1" parent="1" source="XC3X-gBupuGjNduM5ZVt-36" target="XC3X-gBupuGjNduM5ZVt-72">
          <mxGeometry relative="1" as="geometry" />
        </mxCell>
        <mxCell id="XC3X-gBupuGjNduM5ZVt-36" value="&lt;font style=&quot;font-size: 18px;&quot;&gt;Category&lt;/font&gt;" style="rounded=0;whiteSpace=wrap;html=1;fillColor=#dae8fc;strokeColor=#6c8ebf;" vertex="1" parent="1">
          <mxGeometry x="394" y="560" width="120" height="60" as="geometry" />
        </mxCell>
        <mxCell id="XC3X-gBupuGjNduM5ZVt-89" style="edgeStyle=orthogonalEdgeStyle;rounded=0;orthogonalLoop=1;jettySize=auto;html=1;exitX=0.5;exitY=1;exitDx=0;exitDy=0;endArrow=none;endFill=0;" edge="1" parent="1" source="XC3X-gBupuGjNduM5ZVt-37" target="XC3X-gBupuGjNduM5ZVt-79">
          <mxGeometry relative="1" as="geometry" />
        </mxCell>
        <mxCell id="XC3X-gBupuGjNduM5ZVt-90" style="edgeStyle=orthogonalEdgeStyle;rounded=0;orthogonalLoop=1;jettySize=auto;html=1;exitX=0.75;exitY=1;exitDx=0;exitDy=0;endArrow=none;endFill=0;" edge="1" parent="1" source="XC3X-gBupuGjNduM5ZVt-37" target="XC3X-gBupuGjNduM5ZVt-78">
          <mxGeometry relative="1" as="geometry" />
        </mxCell>
        <mxCell id="XC3X-gBupuGjNduM5ZVt-37" value="&lt;font style=&quot;font-size: 18px;&quot;&gt;Payment&lt;/font&gt;" style="rounded=0;whiteSpace=wrap;html=1;fillColor=#dae8fc;strokeColor=#6c8ebf;" vertex="1" parent="1">
          <mxGeometry x="103" y="558" width="120" height="60" as="geometry" />
        </mxCell>
        <mxCell id="XC3X-gBupuGjNduM5ZVt-42" style="edgeStyle=orthogonalEdgeStyle;rounded=0;orthogonalLoop=1;jettySize=auto;html=1;exitX=0.5;exitY=1;exitDx=0;exitDy=0;endArrow=none;endFill=0;" edge="1" parent="1" source="XC3X-gBupuGjNduM5ZVt-38" target="XC3X-gBupuGjNduM5ZVt-36">
          <mxGeometry relative="1" as="geometry" />
        </mxCell>
        <mxCell id="XC3X-gBupuGjNduM5ZVt-43" style="edgeStyle=orthogonalEdgeStyle;rounded=0;orthogonalLoop=1;jettySize=auto;html=1;exitX=0.5;exitY=0;exitDx=0;exitDy=0;entryX=1;entryY=0.75;entryDx=0;entryDy=0;endArrow=none;endFill=0;" edge="1" parent="1" source="XC3X-gBupuGjNduM5ZVt-38" target="XC3X-gBupuGjNduM5ZVt-13">
          <mxGeometry relative="1" as="geometry" />
        </mxCell>
        <mxCell id="XC3X-gBupuGjNduM5ZVt-38" value="Select" style="rhombus;whiteSpace=wrap;html=1;fillColor=#dae8fc;gradientColor=#7ea6e0;strokeColor=#6c8ebf;" vertex="1" parent="1">
          <mxGeometry x="424" y="458" width="60" height="60" as="geometry" />
        </mxCell>
        <mxCell id="XC3X-gBupuGjNduM5ZVt-41" style="edgeStyle=orthogonalEdgeStyle;rounded=0;orthogonalLoop=1;jettySize=auto;html=1;entryX=0.5;entryY=0;entryDx=0;entryDy=0;endArrow=none;endFill=0;" edge="1" parent="1" source="XC3X-gBupuGjNduM5ZVt-39" target="XC3X-gBupuGjNduM5ZVt-37">
          <mxGeometry relative="1" as="geometry" />
        </mxCell>
        <mxCell id="XC3X-gBupuGjNduM5ZVt-39" value="Make" style="rhombus;whiteSpace=wrap;html=1;fillColor=#dae8fc;gradientColor=#7ea6e0;strokeColor=#6c8ebf;" vertex="1" parent="1">
          <mxGeometry x="133" y="455" width="60" height="60" as="geometry" />
        </mxCell>
        <mxCell id="XC3X-gBupuGjNduM5ZVt-64" style="edgeStyle=orthogonalEdgeStyle;rounded=0;orthogonalLoop=1;jettySize=auto;html=1;exitX=1;exitY=0.5;exitDx=0;exitDy=0;entryX=0.25;entryY=0;entryDx=0;entryDy=0;endArrow=none;endFill=0;" edge="1" parent="1" source="XC3X-gBupuGjNduM5ZVt-44" target="XC3X-gBupuGjNduM5ZVt-8">
          <mxGeometry relative="1" as="geometry" />
        </mxCell>
        <mxCell id="XC3X-gBupuGjNduM5ZVt-44" value="Password" style="ellipse;whiteSpace=wrap;html=1;fillColor=#f5f5f5;fontColor=#333333;strokeColor=#666666;" vertex="1" parent="1">
          <mxGeometry x="530" width="60" height="40" as="geometry" />
        </mxCell>
        <mxCell id="XC3X-gBupuGjNduM5ZVt-60" style="edgeStyle=orthogonalEdgeStyle;rounded=0;orthogonalLoop=1;jettySize=auto;html=1;exitX=0;exitY=1;exitDx=0;exitDy=0;entryX=0.75;entryY=0;entryDx=0;entryDy=0;endArrow=none;endFill=0;" edge="1" parent="1" source="XC3X-gBupuGjNduM5ZVt-45" target="XC3X-gBupuGjNduM5ZVt-8">
          <mxGeometry relative="1" as="geometry" />
        </mxCell>
        <mxCell id="XC3X-gBupuGjNduM5ZVt-45" value="E-mail" style="ellipse;whiteSpace=wrap;html=1;fillColor=#f5f5f5;fontColor=#333333;strokeColor=#666666;" vertex="1" parent="1">
          <mxGeometry x="680" width="60" height="40" as="geometry" />
        </mxCell>
        <mxCell id="XC3X-gBupuGjNduM5ZVt-46" value="Address" style="ellipse;whiteSpace=wrap;html=1;fillColor=#f5f5f5;fontColor=#333333;strokeColor=#666666;" vertex="1" parent="1">
          <mxGeometry x="620" width="60" height="40" as="geometry" />
        </mxCell>
        <mxCell id="XC3X-gBupuGjNduM5ZVt-47" value="Phone" style="ellipse;whiteSpace=wrap;html=1;fillColor=#f5f5f5;fontColor=#333333;strokeColor=#666666;" vertex="1" parent="1">
          <mxGeometry x="500" y="45" width="60" height="40" as="geometry" />
        </mxCell>
        <mxCell id="XC3X-gBupuGjNduM5ZVt-48" value="Name" style="ellipse;whiteSpace=wrap;html=1;fillColor=#f5f5f5;fontColor=#333333;strokeColor=#666666;" vertex="1" parent="1">
          <mxGeometry x="500" y="85" width="60" height="40" as="geometry" />
        </mxCell>
        <mxCell id="XC3X-gBupuGjNduM5ZVt-49" value="National_ID" style="ellipse;whiteSpace=wrap;html=1;fillColor=#f5f5f5;fontColor=#333333;strokeColor=#666666;" vertex="1" parent="1">
          <mxGeometry x="730" y="40" width="60" height="40" as="geometry" />
        </mxCell>
        <mxCell id="XC3X-gBupuGjNduM5ZVt-53" style="edgeStyle=orthogonalEdgeStyle;rounded=0;orthogonalLoop=1;jettySize=auto;html=1;exitX=1;exitY=0.5;exitDx=0;exitDy=0;entryX=0;entryY=0.25;entryDx=0;entryDy=0;endArrow=none;endFill=0;" edge="1" parent="1" source="XC3X-gBupuGjNduM5ZVt-50" target="XC3X-gBupuGjNduM5ZVt-8">
          <mxGeometry relative="1" as="geometry" />
        </mxCell>
        <mxCell id="XC3X-gBupuGjNduM5ZVt-50" value="ID" style="ellipse;whiteSpace=wrap;html=1;fillColor=#f5f5f5;fontColor=#333333;strokeColor=#666666;" vertex="1" parent="1">
          <mxGeometry x="500" y="140" width="60" height="40" as="geometry" />
        </mxCell>
        <mxCell id="XC3X-gBupuGjNduM5ZVt-51" value="Personal_image" style="ellipse;whiteSpace=wrap;html=1;fillColor=#f5f5f5;fontColor=#333333;strokeColor=#666666;" vertex="1" parent="1">
          <mxGeometry x="730" y="85" width="90" height="40" as="geometry" />
        </mxCell>
        <mxCell id="XC3X-gBupuGjNduM5ZVt-63" style="edgeStyle=orthogonalEdgeStyle;rounded=0;orthogonalLoop=1;jettySize=auto;html=1;exitX=0;exitY=0.5;exitDx=0;exitDy=0;entryX=1;entryY=0.25;entryDx=0;entryDy=0;endArrow=none;endFill=0;" edge="1" parent="1" source="XC3X-gBupuGjNduM5ZVt-52" target="XC3X-gBupuGjNduM5ZVt-8">
          <mxGeometry relative="1" as="geometry" />
        </mxCell>
        <mxCell id="XC3X-gBupuGjNduM5ZVt-52" value="Account_State" style="ellipse;whiteSpace=wrap;html=1;fillColor=#f5f5f5;fontColor=#333333;strokeColor=#666666;" vertex="1" parent="1">
          <mxGeometry x="730" y="140" width="80" height="40" as="geometry" />
        </mxCell>
        <mxCell id="XC3X-gBupuGjNduM5ZVt-54" style="edgeStyle=orthogonalEdgeStyle;rounded=0;orthogonalLoop=1;jettySize=auto;html=1;exitX=1;exitY=0.5;exitDx=0;exitDy=0;entryX=0.073;entryY=0.046;entryDx=0;entryDy=0;entryPerimeter=0;endArrow=none;endFill=0;" edge="1" parent="1" source="XC3X-gBupuGjNduM5ZVt-48" target="XC3X-gBupuGjNduM5ZVt-8">
          <mxGeometry relative="1" as="geometry" />
        </mxCell>
        <mxCell id="XC3X-gBupuGjNduM5ZVt-55" style="edgeStyle=orthogonalEdgeStyle;rounded=0;orthogonalLoop=1;jettySize=auto;html=1;exitX=1;exitY=0.5;exitDx=0;exitDy=0;entryX=0.148;entryY=-0.037;entryDx=0;entryDy=0;entryPerimeter=0;endArrow=none;endFill=0;" edge="1" parent="1" source="XC3X-gBupuGjNduM5ZVt-47" target="XC3X-gBupuGjNduM5ZVt-8">
          <mxGeometry relative="1" as="geometry">
            <Array as="points">
              <mxPoint x="560" y="70" />
              <mxPoint x="608" y="70" />
            </Array>
          </mxGeometry>
        </mxCell>
        <mxCell id="XC3X-gBupuGjNduM5ZVt-59" style="edgeStyle=orthogonalEdgeStyle;rounded=0;orthogonalLoop=1;jettySize=auto;html=1;entryX=0.583;entryY=0;entryDx=0;entryDy=0;entryPerimeter=0;endArrow=none;endFill=0;" edge="1" parent="1" source="XC3X-gBupuGjNduM5ZVt-46" target="XC3X-gBupuGjNduM5ZVt-8">
          <mxGeometry relative="1" as="geometry">
            <Array as="points">
              <mxPoint x="650" y="160" />
            </Array>
          </mxGeometry>
        </mxCell>
        <mxCell id="XC3X-gBupuGjNduM5ZVt-61" style="edgeStyle=orthogonalEdgeStyle;rounded=0;orthogonalLoop=1;jettySize=auto;html=1;exitX=0;exitY=0.5;exitDx=0;exitDy=0;entryX=0.917;entryY=0;entryDx=0;entryDy=0;entryPerimeter=0;endArrow=none;endFill=0;" edge="1" parent="1" source="XC3X-gBupuGjNduM5ZVt-49" target="XC3X-gBupuGjNduM5ZVt-8">
          <mxGeometry relative="1" as="geometry" />
        </mxCell>
        <mxCell id="XC3X-gBupuGjNduM5ZVt-62" style="edgeStyle=orthogonalEdgeStyle;rounded=0;orthogonalLoop=1;jettySize=auto;html=1;exitX=0;exitY=0.5;exitDx=0;exitDy=0;entryX=0.99;entryY=0.129;entryDx=0;entryDy=0;entryPerimeter=0;endArrow=none;endFill=0;" edge="1" parent="1" source="XC3X-gBupuGjNduM5ZVt-51" target="XC3X-gBupuGjNduM5ZVt-8">
          <mxGeometry relative="1" as="geometry" />
        </mxCell>
        <mxCell id="XC3X-gBupuGjNduM5ZVt-66" value="ID" style="ellipse;whiteSpace=wrap;html=1;fillColor=#f5f5f5;fontColor=#333333;strokeColor=#666666;" vertex="1" parent="1">
          <mxGeometry x="880" y="520" width="90" height="40" as="geometry" />
        </mxCell>
        <mxCell id="XC3X-gBupuGjNduM5ZVt-67" value="History" style="ellipse;whiteSpace=wrap;html=1;fillColor=#f5f5f5;fontColor=#333333;strokeColor=#666666;" vertex="1" parent="1">
          <mxGeometry x="975" y="520" width="90" height="40" as="geometry" />
        </mxCell>
        <mxCell id="XC3X-gBupuGjNduM5ZVt-68" value="Review" style="ellipse;whiteSpace=wrap;html=1;fillColor=#f5f5f5;fontColor=#333333;strokeColor=#666666;" vertex="1" parent="1">
          <mxGeometry x="1070" y="520" width="90" height="40" as="geometry" />
        </mxCell>
        <mxCell id="XC3X-gBupuGjNduM5ZVt-72" value="ID" style="ellipse;whiteSpace=wrap;html=1;fillColor=#f5f5f5;fontColor=#333333;strokeColor=#666666;" vertex="1" parent="1">
          <mxGeometry x="460" y="672" width="90" height="40" as="geometry" />
        </mxCell>
        <mxCell id="XC3X-gBupuGjNduM5ZVt-75" style="edgeStyle=orthogonalEdgeStyle;rounded=0;orthogonalLoop=1;jettySize=auto;html=1;exitX=0.5;exitY=0;exitDx=0;exitDy=0;endArrow=none;endFill=0;" edge="1" parent="1" source="XC3X-gBupuGjNduM5ZVt-73" target="XC3X-gBupuGjNduM5ZVt-36">
          <mxGeometry relative="1" as="geometry" />
        </mxCell>
        <mxCell id="XC3X-gBupuGjNduM5ZVt-73" value="Type" style="ellipse;whiteSpace=wrap;html=1;fillColor=#f5f5f5;fontColor=#333333;strokeColor=#666666;" vertex="1" parent="1">
          <mxGeometry x="366" y="672" width="90" height="40" as="geometry" />
        </mxCell>
        <mxCell id="XC3X-gBupuGjNduM5ZVt-82" style="edgeStyle=orthogonalEdgeStyle;rounded=0;orthogonalLoop=1;jettySize=auto;html=1;exitX=1;exitY=0.5;exitDx=0;exitDy=0;endArrow=none;endFill=0;" edge="1" parent="1" source="XC3X-gBupuGjNduM5ZVt-76" target="XC3X-gBupuGjNduM5ZVt-37">
          <mxGeometry relative="1" as="geometry" />
        </mxCell>
        <mxCell id="XC3X-gBupuGjNduM5ZVt-76" value="ID" style="ellipse;whiteSpace=wrap;html=1;fillColor=#f5f5f5;fontColor=#333333;strokeColor=#666666;" vertex="1" parent="1">
          <mxGeometry x="5" y="568" width="78" height="40" as="geometry" />
        </mxCell>
        <mxCell id="XC3X-gBupuGjNduM5ZVt-77" value="Date" style="ellipse;whiteSpace=wrap;html=1;fillColor=#f5f5f5;fontColor=#333333;strokeColor=#666666;" vertex="1" parent="1">
          <mxGeometry x="15" y="696" width="90" height="40" as="geometry" />
        </mxCell>
        <mxCell id="XC3X-gBupuGjNduM5ZVt-78" value="Amount" style="ellipse;whiteSpace=wrap;html=1;fillColor=#f5f5f5;fontColor=#333333;strokeColor=#666666;" vertex="1" parent="1">
          <mxGeometry x="215" y="694" width="90" height="40" as="geometry" />
        </mxCell>
        <mxCell id="XC3X-gBupuGjNduM5ZVt-79" value="State" style="ellipse;whiteSpace=wrap;html=1;fillColor=#f5f5f5;fontColor=#333333;strokeColor=#666666;" vertex="1" parent="1">
          <mxGeometry x="118" y="696" width="90" height="40" as="geometry" />
        </mxCell>
        <mxCell id="XC3X-gBupuGjNduM5ZVt-87" style="edgeStyle=orthogonalEdgeStyle;rounded=0;orthogonalLoop=1;jettySize=auto;html=1;exitX=0;exitY=0.5;exitDx=0;exitDy=0;entryX=1;entryY=0.5;entryDx=0;entryDy=0;endArrow=none;endFill=0;" edge="1" parent="1" source="XC3X-gBupuGjNduM5ZVt-80" target="XC3X-gBupuGjNduM5ZVt-37">
          <mxGeometry relative="1" as="geometry" />
        </mxCell>
        <mxCell id="XC3X-gBupuGjNduM5ZVt-80" value="Payment term" style="ellipse;whiteSpace=wrap;html=1;fillColor=#f5f5f5;fontColor=#333333;strokeColor=#666666;" vertex="1" parent="1">
          <mxGeometry x="260" y="565.5" width="100" height="45" as="geometry" />
        </mxCell>
        <mxCell id="XC3X-gBupuGjNduM5ZVt-91" style="edgeStyle=orthogonalEdgeStyle;rounded=0;orthogonalLoop=1;jettySize=auto;html=1;exitX=0.25;exitY=1;exitDx=0;exitDy=0;entryX=0.619;entryY=-0.056;entryDx=0;entryDy=0;entryPerimeter=0;endArrow=none;endFill=0;" edge="1" parent="1" source="XC3X-gBupuGjNduM5ZVt-37" target="XC3X-gBupuGjNduM5ZVt-77">
          <mxGeometry relative="1" as="geometry" />
        </mxCell>
        <mxCell id="XC3X-gBupuGjNduM5ZVt-97" style="edgeStyle=orthogonalEdgeStyle;rounded=0;orthogonalLoop=1;jettySize=auto;html=1;exitX=0.5;exitY=1;exitDx=0;exitDy=0;entryX=0.5;entryY=0;entryDx=0;entryDy=0;endArrow=none;endFill=0;" edge="1" parent="1" source="XC3X-gBupuGjNduM5ZVt-92" target="XC3X-gBupuGjNduM5ZVt-14">
          <mxGeometry relative="1" as="geometry" />
        </mxCell>
        <mxCell id="XC3X-gBupuGjNduM5ZVt-92" value="ID" style="ellipse;whiteSpace=wrap;html=1;fillColor=#f5f5f5;fontColor=#333333;strokeColor=#666666;" vertex="1" parent="1">
          <mxGeometry x="907" y="83" width="90" height="40" as="geometry" />
        </mxCell>
        <mxCell id="XC3X-gBupuGjNduM5ZVt-98" style="edgeStyle=orthogonalEdgeStyle;rounded=0;orthogonalLoop=1;jettySize=auto;html=1;exitX=0.5;exitY=1;exitDx=0;exitDy=0;endArrow=none;endFill=0;" edge="1" parent="1" source="XC3X-gBupuGjNduM5ZVt-93" target="XC3X-gBupuGjNduM5ZVt-14">
          <mxGeometry relative="1" as="geometry" />
        </mxCell>
        <mxCell id="XC3X-gBupuGjNduM5ZVt-93" value="Salary" style="ellipse;whiteSpace=wrap;html=1;fillColor=#f5f5f5;fontColor=#333333;strokeColor=#666666;" vertex="1" parent="1">
          <mxGeometry x="1006" y="83" width="90" height="40" as="geometry" />
        </mxCell>
        <mxCell id="XC3X-gBupuGjNduM5ZVt-100" style="edgeStyle=orthogonalEdgeStyle;rounded=0;orthogonalLoop=1;jettySize=auto;html=1;exitX=0;exitY=0.5;exitDx=0;exitDy=0;entryX=1;entryY=1;entryDx=0;entryDy=0;endArrow=none;endFill=0;" edge="1" parent="1" source="XC3X-gBupuGjNduM5ZVt-94" target="XC3X-gBupuGjNduM5ZVt-14">
          <mxGeometry relative="1" as="geometry" />
        </mxCell>
        <mxCell id="XC3X-gBupuGjNduM5ZVt-94" value="work hours" style="ellipse;whiteSpace=wrap;html=1;fillColor=#f5f5f5;fontColor=#333333;strokeColor=#666666;" vertex="1" parent="1">
          <mxGeometry x="1077" y="195" width="90" height="40" as="geometry" />
        </mxCell>
        <mxCell id="XC3X-gBupuGjNduM5ZVt-99" style="edgeStyle=orthogonalEdgeStyle;rounded=0;orthogonalLoop=1;jettySize=auto;html=1;exitX=0;exitY=0.5;exitDx=0;exitDy=0;entryX=1;entryY=0.5;entryDx=0;entryDy=0;endArrow=none;endFill=0;" edge="1" parent="1" source="XC3X-gBupuGjNduM5ZVt-95" target="XC3X-gBupuGjNduM5ZVt-14">
          <mxGeometry relative="1" as="geometry" />
        </mxCell>
        <mxCell id="XC3X-gBupuGjNduM5ZVt-95" value="Hire Date" style="ellipse;whiteSpace=wrap;html=1;fillColor=#f5f5f5;fontColor=#333333;strokeColor=#666666;" vertex="1" parent="1">
          <mxGeometry x="1077" y="147" width="90" height="40" as="geometry" />
        </mxCell>
        <mxCell id="XC3X-gBupuGjNduM5ZVt-118" style="edgeStyle=orthogonalEdgeStyle;rounded=0;orthogonalLoop=1;jettySize=auto;html=1;exitX=1;exitY=0.5;exitDx=0;exitDy=0;entryX=0;entryY=0;entryDx=0;entryDy=0;endArrow=none;endFill=0;" edge="1" parent="1" source="XC3X-gBupuGjNduM5ZVt-101" target="XC3X-gBupuGjNduM5ZVt-18">
          <mxGeometry relative="1" as="geometry" />
        </mxCell>
        <mxCell id="XC3X-gBupuGjNduM5ZVt-101" value="ID" style="ellipse;whiteSpace=wrap;html=1;fillColor=#f5f5f5;fontColor=#333333;strokeColor=#666666;" vertex="1" parent="1">
          <mxGeometry x="540" y="370" width="60" height="40" as="geometry" />
        </mxCell>
        <mxCell id="XC3X-gBupuGjNduM5ZVt-119" style="edgeStyle=orthogonalEdgeStyle;rounded=0;orthogonalLoop=1;jettySize=auto;html=1;exitX=0;exitY=0.5;exitDx=0;exitDy=0;entryX=1;entryY=0;entryDx=0;entryDy=0;endArrow=none;endFill=0;" edge="1" parent="1" source="XC3X-gBupuGjNduM5ZVt-102" target="XC3X-gBupuGjNduM5ZVt-18">
          <mxGeometry relative="1" as="geometry" />
        </mxCell>
        <mxCell id="XC3X-gBupuGjNduM5ZVt-102" value="Cost" style="ellipse;whiteSpace=wrap;html=1;fillColor=#f5f5f5;fontColor=#333333;strokeColor=#666666;" vertex="1" parent="1">
          <mxGeometry x="680" y="370" width="60" height="40" as="geometry" />
        </mxCell>
        <mxCell id="XC3X-gBupuGjNduM5ZVt-121" style="edgeStyle=orthogonalEdgeStyle;rounded=0;orthogonalLoop=1;jettySize=auto;html=1;exitX=1;exitY=0.5;exitDx=0;exitDy=0;entryX=0;entryY=1;entryDx=0;entryDy=0;endArrow=none;endFill=0;" edge="1" parent="1" source="XC3X-gBupuGjNduM5ZVt-103" target="XC3X-gBupuGjNduM5ZVt-18">
          <mxGeometry relative="1" as="geometry" />
        </mxCell>
        <mxCell id="XC3X-gBupuGjNduM5ZVt-103" value="Date" style="ellipse;whiteSpace=wrap;html=1;fillColor=#f5f5f5;fontColor=#333333;strokeColor=#666666;" vertex="1" parent="1">
          <mxGeometry x="540" y="440" width="60" height="40" as="geometry" />
        </mxCell>
        <mxCell id="XC3X-gBupuGjNduM5ZVt-120" style="edgeStyle=orthogonalEdgeStyle;rounded=0;orthogonalLoop=1;jettySize=auto;html=1;exitX=0;exitY=0.5;exitDx=0;exitDy=0;entryX=1;entryY=1;entryDx=0;entryDy=0;endArrow=none;endFill=0;" edge="1" parent="1" source="XC3X-gBupuGjNduM5ZVt-104" target="XC3X-gBupuGjNduM5ZVt-18">
          <mxGeometry relative="1" as="geometry" />
        </mxCell>
        <mxCell id="XC3X-gBupuGjNduM5ZVt-104" value="State" style="ellipse;whiteSpace=wrap;html=1;fillColor=#f5f5f5;fontColor=#333333;strokeColor=#666666;" vertex="1" parent="1">
          <mxGeometry x="685" y="440" width="60" height="40" as="geometry" />
        </mxCell>
        <mxCell id="XC3X-gBupuGjNduM5ZVt-105" value="Herify_Review" style="ellipse;whiteSpace=wrap;html=1;fillColor=#f5f5f5;fontColor=#333333;strokeColor=#666666;" vertex="1" parent="1">
          <mxGeometry x="655" y="525" width="90" height="40" as="geometry" />
        </mxCell>
        <mxCell id="XC3X-gBupuGjNduM5ZVt-106" value="Client_Review" style="ellipse;whiteSpace=wrap;html=1;fillColor=#f5f5f5;fontColor=#333333;strokeColor=#666666;" vertex="1" parent="1">
          <mxGeometry x="550" y="525" width="90" height="40" as="geometry" />
        </mxCell>
        <mxCell id="XC3X-gBupuGjNduM5ZVt-107" style="edgeStyle=orthogonalEdgeStyle;rounded=0;orthogonalLoop=1;jettySize=auto;html=1;exitX=0.5;exitY=1;exitDx=0;exitDy=0;" edge="1" parent="1" source="XC3X-gBupuGjNduM5ZVt-105" target="XC3X-gBupuGjNduM5ZVt-105">
          <mxGeometry relative="1" as="geometry" />
        </mxCell>
        <mxCell id="XC3X-gBupuGjNduM5ZVt-108" style="edgeStyle=orthogonalEdgeStyle;rounded=0;orthogonalLoop=1;jettySize=auto;html=1;exitX=0.5;exitY=1;exitDx=0;exitDy=0;" edge="1" parent="1" source="XC3X-gBupuGjNduM5ZVt-104" target="XC3X-gBupuGjNduM5ZVt-104">
          <mxGeometry relative="1" as="geometry" />
        </mxCell>
        <mxCell id="XC3X-gBupuGjNduM5ZVt-114" style="edgeStyle=orthogonalEdgeStyle;rounded=0;orthogonalLoop=1;jettySize=auto;html=1;exitX=0.5;exitY=1;exitDx=0;exitDy=0;entryX=0.286;entryY=0.119;entryDx=0;entryDy=0;entryPerimeter=0;endArrow=none;endFill=0;" edge="1" parent="1" source="XC3X-gBupuGjNduM5ZVt-18" target="XC3X-gBupuGjNduM5ZVt-105">
          <mxGeometry relative="1" as="geometry" />
        </mxCell>
        <mxCell id="XC3X-gBupuGjNduM5ZVt-122" value="1" style="text;html=1;align=center;verticalAlign=middle;resizable=0;points=[];autosize=1;strokeColor=none;fillColor=none;" vertex="1" parent="1">
          <mxGeometry x="705" y="168" width="30" height="30" as="geometry" />
        </mxCell>
        <mxCell id="XC3X-gBupuGjNduM5ZVt-123" value="1" style="text;html=1;align=center;verticalAlign=middle;resizable=0;points=[];autosize=1;strokeColor=none;fillColor=none;" vertex="1" parent="1">
          <mxGeometry x="905" y="163" width="30" height="30" as="geometry" />
        </mxCell>
        <mxCell id="XC3X-gBupuGjNduM5ZVt-124" value="1" style="text;html=1;align=center;verticalAlign=middle;resizable=0;points=[];autosize=1;strokeColor=none;fillColor=none;" vertex="1" parent="1">
          <mxGeometry x="314" y="165" width="30" height="30" as="geometry" />
        </mxCell>
        <mxCell id="XC3X-gBupuGjNduM5ZVt-125" value="1" style="text;html=1;align=center;verticalAlign=middle;resizable=0;points=[];autosize=1;strokeColor=none;fillColor=none;" vertex="1" parent="1">
          <mxGeometry x="565" y="168" width="30" height="30" as="geometry" />
        </mxCell>
        <mxCell id="XC3X-gBupuGjNduM5ZVt-126" value="1" style="text;html=1;align=center;verticalAlign=middle;resizable=0;points=[];autosize=1;strokeColor=none;fillColor=none;" vertex="1" parent="1">
          <mxGeometry x="620" y="216" width="30" height="30" as="geometry" />
        </mxCell>
        <mxCell id="XC3X-gBupuGjNduM5ZVt-127" value="1" style="text;html=1;align=center;verticalAlign=middle;resizable=0;points=[];autosize=1;strokeColor=none;fillColor=none;" vertex="1" parent="1">
          <mxGeometry x="645" y="216" width="30" height="30" as="geometry" />
        </mxCell>
        <mxCell id="XC3X-gBupuGjNduM5ZVt-128" value="1" style="text;html=1;align=center;verticalAlign=middle;resizable=0;points=[];autosize=1;strokeColor=none;fillColor=none;" vertex="1" parent="1">
          <mxGeometry x="1001" y="360" width="30" height="30" as="geometry" />
        </mxCell>
        <mxCell id="XC3X-gBupuGjNduM5ZVt-129" value="1" style="text;html=1;align=center;verticalAlign=middle;resizable=0;points=[];autosize=1;strokeColor=none;fillColor=none;" vertex="1" parent="1">
          <mxGeometry x="230" y="360" width="30" height="30" as="geometry" />
        </mxCell>
        <mxCell id="XC3X-gBupuGjNduM5ZVt-130" value="1" style="text;html=1;align=center;verticalAlign=middle;resizable=0;points=[];autosize=1;strokeColor=none;fillColor=none;" vertex="1" parent="1">
          <mxGeometry x="175" y="398" width="30" height="30" as="geometry" />
        </mxCell>
        <mxCell id="XC3X-gBupuGjNduM5ZVt-131" value="M" style="text;html=1;align=center;verticalAlign=middle;resizable=0;points=[];autosize=1;strokeColor=none;fillColor=none;" vertex="1" parent="1">
          <mxGeometry x="137" y="530" width="30" height="30" as="geometry" />
        </mxCell>
        <mxCell id="XC3X-gBupuGjNduM5ZVt-132" value="M" style="text;html=1;align=center;verticalAlign=middle;resizable=0;points=[];autosize=1;strokeColor=none;fillColor=none;" vertex="1" parent="1">
          <mxGeometry x="420" y="530" width="30" height="30" as="geometry" />
        </mxCell>
        <mxCell id="XC3X-gBupuGjNduM5ZVt-133" value="M" style="text;html=1;align=center;verticalAlign=middle;resizable=0;points=[];autosize=1;strokeColor=none;fillColor=none;" vertex="1" parent="1">
          <mxGeometry x="325" y="430" width="30" height="30" as="geometry" />
        </mxCell>
        <mxCell id="XC3X-gBupuGjNduM5ZVt-134" value="M" style="text;html=1;align=center;verticalAlign=middle;resizable=0;points=[];autosize=1;strokeColor=none;fillColor=none;" vertex="1" parent="1">
          <mxGeometry x="325" y="388" width="30" height="30" as="geometry" />
        </mxCell>
        <mxCell id="XC3X-gBupuGjNduM5ZVt-135" value="M" style="text;html=1;align=center;verticalAlign=middle;resizable=0;points=[];autosize=1;strokeColor=none;fillColor=none;" vertex="1" parent="1">
          <mxGeometry x="930" y="388" width="30" height="30" as="geometry" />
        </mxCell>
      </root>
    </mxGraphModel>
  </diagram>
</mxfile>
